<svg width="464" height="863" viewBox="0 0 464 863" fill="none" xmlns="http://www.w3.org/2000/svg">
<path d="M547.95 28.2907H559.229C601.852 28.301 642.725 45.2401 672.86 75.3825C702.995 105.525 719.924 146.402 719.924 189.025V495.663H387.167V189.025C387.167 167.913 391.326 147.008 399.407 127.503C407.488 107.999 419.331 90.2775 434.262 75.3513C449.193 60.4251 466.918 48.5866 486.425 40.5118C505.932 32.437 526.838 28.2842 547.95 28.2907Z" fill="#FFB7D5"/>
<path d="M613.962 311.08V500.437H466.307V311.08H613.962ZM617.875 307.167H462.394V504.35H617.875V307.167Z" fill="#CA7358"/>
<path d="M617.875 307.157H462.394V347.92H617.875V307.157Z" fill="#CA7358"/>
<path d="M461.562 208.687V501.386H372.689V208.687H461.562ZM465.475 204.774H368.776V505.299H465.475V204.774Z" fill="#CA7358"/>
<path d="M465.475 197.193H368.776V212.835H465.475V197.193Z" fill="#CA7358"/>
<path d="M484.433 144.104C498.048 144.104 509.084 133.067 509.084 119.452C509.084 105.838 498.048 94.8009 484.433 94.8009C470.818 94.8009 459.781 105.838 459.781 119.452C459.781 133.067 470.818 144.104 484.433 144.104Z" fill="#F5EBDD"/>
<path d="M762.585 495.82H344.505V524.257H762.585V495.82Z" fill="#F5EBDD"/>
<path d="M560.149 0H546.972C443.025 0 358.759 84.2654 358.759 188.213V524.257H748.401V188.213C748.372 84.2654 664.097 0 560.149 0ZM539.332 495.82H387.167V258.812H539.332V495.82ZM539.332 230.375H387.167V189.181C387.169 148.036 402.948 108.457 431.256 78.5966C459.564 48.7363 498.245 30.8682 539.332 28.6721V230.375ZM719.925 495.82H567.77V258.812H719.925V495.82ZM719.925 230.375H567.77V28.6721C608.856 30.8682 647.535 48.7367 675.842 78.5973C704.148 108.458 719.926 148.036 719.925 189.181V230.375Z" fill="#F5EBDD"/>
<path d="M37.9165 898.727C58.8572 898.727 75.833 881.751 75.833 860.81C75.833 839.869 58.8572 822.894 37.9165 822.894C16.9758 822.894 0 839.869 0 860.81C0 881.751 16.9758 898.727 37.9165 898.727Z" fill="#FFB7D5"/>
<path d="M152.527 807.046V823.158H291.887V807.046H152.527Z" fill="#A15842"/>
<path d="M314.846 890.666L280.324 683.524H301.435C303.697 683.524 305.867 682.625 307.466 681.026C309.066 679.426 309.965 677.256 309.965 674.994C309.965 672.731 309.066 670.562 307.466 668.962C305.867 667.362 303.697 666.464 301.435 666.464H143.146C140.884 666.464 138.714 667.362 137.114 668.962C135.514 670.562 134.616 672.731 134.616 674.994C134.616 677.256 135.514 679.426 137.114 681.026C138.714 682.625 140.884 683.524 143.146 683.524H164.09L129.568 890.666C129.398 891.691 129.453 892.742 129.729 893.744C130.005 894.746 130.497 895.676 131.169 896.469C131.841 897.262 132.678 897.899 133.621 898.337C134.564 898.774 135.591 899 136.631 899C138.265 899.002 139.851 898.443 141.123 897.418C142.396 896.393 143.279 894.963 143.625 893.366L189.368 683.524H255.047L300.779 893.366C301.129 894.963 302.015 896.392 303.289 897.417C304.563 898.442 306.148 899 307.783 899C308.823 899 309.85 898.774 310.793 898.337C311.737 897.899 312.573 897.262 313.245 896.469C313.918 895.676 314.409 894.746 314.685 893.744C314.962 892.742 315.017 891.691 314.846 890.666Z" fill="#FFBE21"/>
<path d="M301.435 683.524C303.697 683.524 305.867 682.625 307.466 681.026C309.066 679.426 309.965 677.256 309.965 674.994C309.965 672.731 309.066 670.562 307.466 668.962C305.867 667.362 303.697 666.464 301.435 666.464H143.146C140.884 666.464 138.714 667.362 137.114 668.962C135.514 670.562 134.616 672.731 134.616 674.994C134.616 677.256 135.514 679.426 137.114 681.026C138.714 682.625 140.884 683.524 143.146 683.524H164.09V683.788H189.348L189.407 683.524H255.086L255.144 683.788H280.402V683.524H301.435Z" fill="#A15842"/>
<path d="M310.816 806.772H411.574C412.826 785.378 417.297 757 421.004 718.662C424.301 684.669 427.138 656.133 426.952 632.577C426.639 593.311 326.194 640.834 326.194 640.834C326.194 649.413 327.925 657.65 327.974 665.632C328.091 686.371 317.585 704.018 310.082 729.032C298.705 766.958 308.184 806.772 308.184 806.772H310.816Z" fill="#4856DF"/>
<path d="M416.945 888.299H328.737C327.512 888.689 326.468 889.503 325.791 890.596C325.114 891.688 324.85 892.986 325.046 894.256C325.242 895.526 325.885 896.684 326.86 897.522C327.834 898.359 329.076 898.821 330.361 898.824L460.163 899C461.308 886.381 454.137 876.883 433.907 862.806C422.364 872.813 416.945 888.299 416.945 888.299Z" fill="#3EC1F3"/>
<path d="M429.358 859.744C425.168 857.035 421.549 853.533 418.705 849.433C411.858 839.387 410.41 825.858 411.535 806.772H324.217C324.386 821.042 325.415 835.288 327.299 849.433C329.529 865.447 332.542 876.462 334.958 888.045H330.37C329.816 888.044 329.265 888.13 328.737 888.299H416.944C416.944 888.299 422.364 872.813 433.907 862.865C432.459 861.841 430.943 860.801 429.358 859.744Z" fill="#A15842"/>
<path d="M412.591 789.633C407.191 778.884 403.51 767.354 401.684 755.464C395.296 711.081 399.082 688.327 381.072 668.4H328.375" stroke="#30242A" stroke-width="4" stroke-linecap="round" stroke-linejoin="round"/>
<path d="M445.45 810.558L445.548 810.793L523.338 774.363C517.282 756.246 510.953 732.142 500.555 700.594C490.811 671.071 484.365 649.012 478.26 631.941C469.724 638.091 459.196 640.827 448.746 639.613C438.295 638.398 428.676 633.322 421.776 625.379C414.876 617.437 411.194 607.202 411.453 596.684C411.712 586.166 415.894 576.125 423.176 568.532C381.65 549.769 234.161 537.532 234.161 537.532L150.727 525.206C146.325 532.484 142.578 544.017 140.543 557.488H169.695V588.664C169.679 594.968 167.166 601.009 162.704 605.463C158.243 609.917 152.198 612.42 145.894 612.426H144.231C143.84 612.426 143.449 612.426 143.067 612.426C151.03 641.773 171.514 666.493 213.324 666.493H382.07C400.08 686.4 396.294 709.154 402.682 753.556C407.906 789.878 432.665 816.652 432.665 816.652L445.45 810.558Z" fill="#4856DF"/>
<path d="M564.717 820.859C556.637 819.313 550.298 816.623 545.064 812.554C535.419 805.041 529.51 792.813 523.337 774.402L445.548 810.832C452.141 825.985 461.395 841.92 470.209 855.831C477.908 867.941 485.255 878.497 490.195 885.569L487.387 886.929C487.068 887.085 486.764 887.268 486.477 887.477L563.954 852.339C562.119 841.898 562.378 831.198 564.717 820.859Z" fill="#A15842"/>
<path d="M453.628 639.914C462.474 639.92 471.096 637.129 478.261 631.942C466.121 597.821 455.595 583.607 423.763 568.796L423.176 568.532C417.454 574.499 413.611 582.016 412.126 590.149C410.641 598.281 411.58 606.671 414.824 614.275C418.069 621.879 423.477 628.361 430.376 632.916C437.276 637.471 445.361 639.898 453.628 639.895V639.914Z" fill="#3EC1F3"/>
<path d="M145.895 612.426C152.211 612.426 158.268 609.917 162.735 605.452C167.202 600.987 169.712 594.931 169.715 588.615V557.439H140.563C137.991 574.353 138.137 594.25 143.068 612.396C143.449 612.396 143.84 612.396 144.232 612.396L145.895 612.426Z" fill="#3EC1F3"/>
<path d="M380.632 668.831H409.07" stroke="#30242A" stroke-width="4" stroke-linecap="round" stroke-linejoin="round"/>
<path d="M502.951 367.357C502.951 367.357 451.76 308.585 391.275 287.269" stroke="#30242A" stroke-width="4" stroke-linecap="round" stroke-linejoin="round"/>
<path d="M342.383 310.228C340.525 305.738 346.727 298.695 357.057 292.747C343.068 289.265 333.129 282.779 334.127 277.33C335.125 271.882 346.707 269.319 361.029 271.001C353.496 261.806 350.18 253.021 353.506 249.48C357.742 244.951 371.183 250.664 383.518 262.197C394.279 272.273 400.637 283.483 399.288 289.187C398.534 294.997 388.625 303.234 375.008 308.869C359.346 315.364 344.76 315.971 342.383 310.228Z" fill="#4756DF"/>
<path d="M399.796 307.44C409.661 307.44 417.658 299.443 417.658 289.578C417.658 279.713 409.661 271.715 399.796 271.715C389.93 271.715 381.933 279.713 381.933 289.578C381.933 299.443 389.93 307.44 399.796 307.44Z" fill="#30242A"/>
<path d="M437.432 312.583C442.34 310.761 440.109 292.561 432.45 271.932C424.79 251.303 414.602 236.057 409.694 237.879C404.787 239.702 407.017 257.902 414.677 278.531C422.336 299.16 432.524 314.406 437.432 312.583Z" fill="#30242A"/>
<path d="M436.559 316.166C436.559 316.166 444.15 337.022 440.354 358.827" stroke="#30242A" stroke-width="4" stroke-linecap="round" stroke-linejoin="round"/>
<path d="M298.128 233.094C281.948 251.299 264.75 255.32 264.75 255.32C253.628 243.19 233.447 243.19 230.365 260.377C227.01 279.424 250.566 284.667 250.566 284.667C250.566 284.667 256.504 309.24 247.396 321.38C239.355 332.141 229.025 333.912 207.856 336.279C235.442 382.892 263.616 379.214 272.997 379.214C295.496 379.214 301.835 353.105 303.606 339.644C298.483 337.858 293.256 336.384 287.954 335.232L284.922 317.037C284.922 317.037 299.077 322.085 311.217 315.012C323.356 307.939 326.389 294.782 322.339 274.562C319.942 262.578 320.03 247.758 317.976 234.513C309.964 235.873 298.128 233.094 298.128 233.094Z" fill="#A15842"/>
<path d="M466.424 334.655C462.129 317.467 428.507 308.145 428.507 308.145C428.507 308.145 430.522 269.563 421.865 268.331C415.233 267.352 408.59 283.503 402.907 314.787C396.548 349.749 400.06 414.323 400.06 414.323C400.06 414.323 393.027 407.935 383.049 399.043C382.052 401.058 380.522 402.762 378.625 403.969C376.728 405.177 374.536 405.841 372.288 405.89C373.707 407.689 374.596 409.847 374.854 412.123C375.113 414.399 374.732 416.702 373.753 418.773C372.774 420.844 371.236 422.6 369.313 423.845C367.39 425.089 365.158 425.772 362.868 425.817C364.286 427.615 365.175 429.774 365.434 432.05C365.693 434.326 365.311 436.629 364.332 438.7C363.353 440.77 361.816 442.527 359.893 443.771C357.97 445.016 355.737 445.699 353.447 445.744C354.936 447.632 355.839 449.914 356.045 452.31C356.251 454.705 355.751 457.108 354.607 459.223C353.462 461.337 351.723 463.07 349.605 464.207C347.486 465.344 345.081 465.836 342.687 465.622C363.455 479.141 391.686 494.91 410.498 494.91C509.085 494.871 469.27 346.032 466.424 334.655Z" fill="#A15842"/>
<path d="M354.875 458.588C355.853 456.517 356.234 454.215 355.977 451.939C355.72 449.664 354.833 447.505 353.417 445.705C355.708 445.66 357.94 444.977 359.863 443.732C361.786 442.488 363.323 440.731 364.302 438.66C365.281 436.59 365.663 434.287 365.404 432.011C365.145 429.735 364.257 427.576 362.838 425.778C365.128 425.733 367.36 425.05 369.283 423.806C371.206 422.561 372.744 420.805 373.723 418.734C374.702 416.663 375.083 414.36 374.825 412.084C374.566 409.808 373.677 407.65 372.258 405.851C374.506 405.802 376.698 405.138 378.595 403.93C380.492 402.723 382.022 401.019 383.019 399.004C365.821 383.684 339.888 360.97 326.085 350.767C319.404 345.827 310.893 342.168 303.586 339.644C301.864 353.144 295.564 379.214 273.065 379.214C263.723 379.214 235.51 382.892 207.924 336.279L199.061 337.257C168.54 340.652 154.649 357.076 146.471 376.7C141.414 388.84 137.364 411.085 137.364 411.085C134.226 431.479 132.611 452.079 132.531 472.714L172.218 509.447L278.768 512.078C287.298 499.498 302.95 476.265 308.115 467.353C314.748 455.976 315.697 446.497 315.697 446.497C315.697 446.497 327.083 455.399 342.686 465.563C345.187 465.782 347.694 465.232 349.873 463.985C352.052 462.738 353.797 460.855 354.875 458.588Z" fill="#FFBE21"/>
<path d="M309.26 210.84C297.13 195.677 263.753 185.562 237.457 204.775C211.162 223.987 213.187 255.34 214.195 267.48C214.195 267.48 185.885 258.372 165.655 279.61C159.8 285.681 155.536 293.106 153.243 301.222C150.949 309.339 150.696 317.897 152.507 326.135C152.507 326.135 115.256 325.088 108.007 359.512C103.889 379.077 111.578 392.097 120.108 400.158C125.111 404.852 130.956 408.56 137.335 411.085C137.335 411.085 141.385 388.84 146.442 376.7C154.62 357.076 168.511 340.652 199.032 337.257L207.895 336.279C229.064 333.912 239.394 332.112 247.436 321.38C256.533 309.241 250.566 284.667 250.566 284.667C250.566 284.667 226.981 279.424 230.336 260.397C233.378 243.209 253.598 243.209 264.721 255.34C264.721 255.34 281.918 251.3 298.098 233.095C298.098 233.095 309.935 235.873 318.006 234.513C316.626 225.396 314.2 217.032 309.26 210.84Z" fill="#30242A"/>
<path d="M468.527 348.164C465.661 346.844 463.949 343.518 464.438 337.159C464.438 337.159 458.51 344.594 452.2 341.287C445.891 337.981 448.414 330.859 448.414 330.859C448.414 330.859 442.721 334.655 437.986 329.881C433.692 325.587 437.008 318.504 437.008 318.504C437.008 318.504 430.708 321.077 428.478 316.607C425.67 311.011 429.084 305.151 432.782 300.661" stroke="#30242A" stroke-width="8" stroke-linecap="round" stroke-linejoin="round"/>
<path d="M150.708 326.956C151.779 332.025 153.712 336.872 156.42 341.288" stroke="black" stroke-width="4" stroke-miterlimit="10" stroke-linecap="round"/>
<path d="M398.162 415.546L400.539 445.098" stroke="#30242A" stroke-width="4" stroke-linecap="round" stroke-linejoin="round"/>
<path d="M312.371 413.795C318.563 424.946 318.485 438.329 317.683 446.262" stroke="#30242A" stroke-width="4" stroke-linecap="round" stroke-linejoin="round"/>
<path d="M256.435 445.098L226.1 446.047" stroke="#30242A" stroke-width="4" stroke-linecap="round" stroke-linejoin="round"/>
<path d="M284.403 318.905C280.164 317.241 276.028 315.324 272.019 313.163" stroke="#30242A" stroke-width="4" stroke-linecap="round" stroke-linejoin="round"/>
<path d="M291.984 346.981L290.331 336.504" stroke="#30242A" stroke-width="4" stroke-linecap="round" stroke-linejoin="round"/>
<path d="M212.151 267.861L214.254 285.352" stroke="black" stroke-width="4" stroke-miterlimit="10" stroke-linecap="round"/>
<path d="M312.371 288.678C310.229 290.067 303.127 290.527 299.723 284.335" stroke="#30242A" stroke-width="4" stroke-linecap="round" stroke-linejoin="round"/>
<path d="M255.486 268.761L246.007 264.027" stroke="#30242A" stroke-width="4" stroke-linecap="round" stroke-linejoin="round"/>
<path d="M299.253 264.564C297.736 266.629 290.585 270.63 285.205 266.061" stroke="#30242A" stroke-width="4" stroke-linecap="round" stroke-linejoin="round"/>
<path d="M322.29 261.581C321.158 261.821 319.989 261.836 318.851 261.625C317.713 261.413 316.628 260.98 315.658 260.348" stroke="#30242A" stroke-width="4" stroke-linecap="round" stroke-linejoin="round"/>
<path d="M309.465 265.103C310.551 267.558 311.598 270.268 311.373 271.305C311.039 272.566 310.287 273.676 309.24 274.454" stroke="#30242A" stroke-width="4" stroke-linecap="round" stroke-linejoin="round"/>
<path d="M250.292 280.216L237.35 292.425C236.649 293.085 236.129 293.915 235.84 294.833C235.551 295.752 235.503 296.729 235.699 297.672C235.895 298.615 236.33 299.492 236.961 300.219C237.593 300.946 238.4 301.499 239.306 301.826L254.606 307.255C255.515 307.576 256.492 307.659 257.442 307.495C258.393 307.331 259.285 306.926 260.034 306.318C260.783 305.711 261.364 304.921 261.72 304.025C262.076 303.128 262.197 302.156 262.07 301.2L259.712 283.591C259.574 282.568 259.158 281.602 258.508 280.799C257.858 279.996 257 279.387 256.028 279.039C255.056 278.691 254.007 278.616 252.995 278.824C251.983 279.031 251.048 279.513 250.292 280.216Z" fill="#F4E6D8"/>
<path d="M436.088 283.464C436.088 283.464 442.721 279.668 448.414 281.566C457.218 284.501 455.927 292.698 455.927 292.698C455.927 292.698 468.272 288.247 470.669 301.297C470.669 301.297 481.802 303.792 479.297 314.924C479.297 314.924 488.307 315.403 486.517 327.211C484.726 339.018 476.852 348.83 472.117 348.83C467.226 348.83 463.773 345.826 464.438 337.091C464.438 337.091 458.51 344.525 452.2 341.219C445.89 337.913 448.414 330.791 448.414 330.791C448.414 330.791 442.721 334.587 437.986 329.813C433.692 325.518 437.008 318.436 437.008 318.436C437.008 318.436 430.708 321.009 428.478 316.538C423.733 307.059 436.783 296.866 438.906 293.794L436.088 283.464Z" fill="#A15842"/>
<path d="M433.271 321.889C439.787 315.912 450.88 304.633 456.143 292.796" stroke="#30242A" stroke-width="4" stroke-linecap="round" stroke-linejoin="round"/>
<path d="M445.235 335.535C456.062 326.328 464.899 315.011 471.208 302.275" stroke="#30242A" stroke-width="4" stroke-linecap="round" stroke-linejoin="round"/>
<path d="M461.992 342.559C464.927 338.979 475.189 326.115 480.275 315.932" stroke="#30242A" stroke-width="4" stroke-linecap="round" stroke-linejoin="round"/>
<path d="M460.153 560.286H295.966L333.286 442.379C334.389 438.907 336.569 435.878 339.51 433.728C342.451 431.579 345.999 430.422 349.642 430.425H488.385C491.081 430.424 493.739 431.058 496.144 432.277C498.548 433.495 500.632 435.263 502.225 437.438C503.818 439.613 504.877 442.132 505.314 444.792C505.751 447.452 505.555 450.178 504.741 452.748L473.878 550.249C472.95 553.161 471.121 555.703 468.654 557.507C466.187 559.312 463.21 560.285 460.153 560.286Z" fill="#30242A"/>
<path d="M200.676 547.011C200.191 548.538 200.074 550.159 200.333 551.74C200.592 553.321 201.22 554.819 202.166 556.112C203.112 557.405 204.35 558.457 205.779 559.182C207.208 559.907 208.787 560.285 210.39 560.286H460.153C463.207 560.279 466.18 559.301 468.642 557.493C471.104 555.685 472.927 553.141 473.849 550.229L474.827 547.011H200.676Z" fill="#30242A"/>
<path d="M435.003 485.206C431.188 479.982 413.844 493.775 412.572 494.92C411.907 493.775 402.887 479.982 396.265 485.206C390.522 489.735 403.112 509.955 406.507 515.111C406.647 515.268 406.819 515.393 407.011 515.479C407.203 515.565 407.412 515.609 407.622 515.609C407.833 515.609 408.041 515.565 408.233 515.479C408.425 515.393 408.597 515.268 408.737 515.111C414.91 509.907 438.319 489.686 435.003 485.206Z" fill="#FFBE21"/>
<path d="M419.155 481.514C420.534 477.088 420.476 473.134 419.027 472.683C417.577 472.231 415.285 475.453 413.906 479.879C412.528 484.305 412.585 488.259 414.035 488.71C415.484 489.161 417.777 485.94 419.155 481.514Z" fill="#FFBE21"/>
<path d="M106.599 453.384C108.73 454.205 111.047 454.419 113.292 454.001C115.538 453.583 117.623 452.55 119.316 451.017C119.516 453.301 120.352 455.484 121.728 457.318C123.104 459.153 124.965 460.566 127.102 461.398C129.239 462.23 131.565 462.449 133.82 462.028C136.074 461.608 138.166 460.565 139.859 459.019C140.064 461.3 140.903 463.479 142.28 465.31C143.657 467.141 145.518 468.551 147.653 469.381C149.788 470.212 152.113 470.43 154.365 470.011C156.617 469.593 158.708 468.553 160.402 467.011C160.558 468.812 161.111 470.556 162.019 472.12C162.928 473.683 164.17 475.026 165.658 476.054C167.145 477.082 168.841 477.768 170.624 478.065C172.408 478.362 174.235 478.262 175.975 477.771L190.766 438.045C196.463 422.795 199.163 406.59 198.719 390.317L197.222 337.492C197.222 337.492 163.092 340.329 143.185 364.981C132.972 377.629 112.928 411.046 100.083 447.378C101.433 450.12 103.756 452.261 106.599 453.384Z" fill="#FFBE21"/>
<path d="M168.218 477.38C166.075 476.555 164.207 475.146 162.824 473.313C161.44 471.481 160.598 469.297 160.392 467.011C158.698 468.553 156.607 469.592 154.355 470.011C152.103 470.43 149.778 470.212 147.643 469.381C145.508 468.551 143.647 467.141 142.27 465.31C140.893 463.479 140.055 461.3 139.849 459.018C138.156 460.565 136.064 461.608 133.81 462.028C131.555 462.449 129.229 462.23 127.092 461.398C124.955 460.566 123.094 459.152 121.718 457.318C120.342 455.483 119.506 453.301 119.306 451.016C117.898 452.299 116.211 453.237 114.379 453.757C112.546 454.277 110.618 454.364 108.746 454.013C106.874 453.661 105.11 452.879 103.591 451.73C102.073 450.58 100.842 449.093 99.9953 447.387C88.8629 478.877 83.1305 512.567 93.9106 536.818C117.114 589.046 186.755 570.665 203.19 565.832C219.624 561 251.554 544.556 272.83 547.461C294.107 550.366 318.279 561 322.153 547.461C322.153 547.461 335.173 547.128 331.075 534.744C331.075 534.744 337.619 533.932 338.587 529.099C340.544 519.425 317.311 510.728 317.311 510.728C317.311 510.728 335.692 513.663 339.556 509.75C344.447 504.859 339.693 496.964 309.671 489.686C276.694 481.704 233.173 486.536 168.374 498.138L175.955 477.761C173.403 478.478 170.687 478.345 168.218 477.38Z" fill="#A15842"/>
<path d="M191.021 432.772L169.373 495.966" stroke="#30242A" stroke-width="4" stroke-linecap="round" stroke-linejoin="round"/>
<path d="M323.151 511.422C312.645 507.431 295.154 501.307 281.576 499.097" stroke="#30242A" stroke-width="4" stroke-linecap="round" stroke-linejoin="round"/>
<path d="M331.349 534.235C317.849 528.16 292.063 517.136 278.191 515.062" stroke="#30242A" stroke-width="4" stroke-linecap="round" stroke-linejoin="round"/>
<path d="M168.531 496.104C161.253 497.278 149.827 499.224 138.411 501.504" stroke="#30242A" stroke-width="4" stroke-linecap="round" stroke-linejoin="round"/>
<path d="M321.752 548.791C311.628 543.636 290.292 533.384 275.296 530.528" stroke="#30242A" stroke-width="4" stroke-linecap="round" stroke-linejoin="round"/>
</svg>
