<svg width="433" height="863" viewBox="0 0 433 863" fill="none" xmlns="http://www.w3.org/2000/svg">
<path d="M-32.0499 28.2907H-20.7708C21.8518 28.301 62.7251 45.2401 92.8601 75.3825C122.995 105.525 139.924 146.402 139.924 189.025V495.663H-192.833V189.025C-192.833 167.913 -188.674 147.008 -180.593 127.503C-172.512 107.999 -160.669 90.2775 -145.738 75.3513C-130.807 60.4251 -113.082 48.5866 -93.5752 40.5118C-74.0684 32.437 -53.1619 28.2842 -32.0499 28.2907Z" fill="#FFB7D5"/>
<path d="M33.9617 311.08V500.437H-113.693V311.08H33.9617ZM37.8747 307.167H-117.606V504.35H37.8747V307.167Z" fill="#CA7358"/>
<path d="M37.8747 307.157H-117.606V347.92H37.8747V307.157Z" fill="#CA7358"/>
<path d="M156.016 149.436V500.437H38.7059V149.436H156.016ZM159.929 145.523H34.793V504.35H159.929V145.523Z" fill="#CA7358"/>
<path d="M85.6613 193.398H86.7862C91.0359 193.398 95.1116 195.086 98.1166 198.091C101.122 201.096 102.81 205.172 102.81 209.421V245.538H69.6279V209.421C69.6279 207.316 70.0427 205.232 70.8486 203.287C71.6544 201.342 72.8356 199.575 74.3246 198.087C75.8136 196.599 77.5811 195.419 79.5263 194.615C81.4715 193.81 83.5562 193.396 85.6613 193.398Z" fill="#CA7358"/>
<path d="M65.8428 221.835H106.606" stroke="#FFB7D5" stroke-width="4" stroke-linecap="round" stroke-linejoin="round"/>
<path d="M85.6613 286.937H86.7862C91.0359 286.937 95.1116 288.625 98.1166 291.63C101.122 294.635 102.81 298.711 102.81 302.96V339.077H69.6279V302.96C69.6279 300.855 70.0427 298.771 70.8486 296.826C71.6544 294.881 72.8356 293.115 74.3246 291.626C75.8136 290.138 77.5811 288.958 79.5263 288.154C81.4715 287.349 83.5562 286.935 85.6613 286.937Z" fill="#F5EBDD"/>
<path d="M65.8428 315.374H106.606" stroke="#FFB7D5" stroke-width="4" stroke-linecap="round" stroke-linejoin="round"/>
<path d="M85.6613 380.476H86.7862C91.0359 380.476 95.1116 382.164 98.1166 385.169C101.122 388.174 102.81 392.249 102.81 396.499V432.616H69.6279V396.499C69.6279 392.249 71.3161 388.174 74.3211 385.169C77.3261 382.164 81.4018 380.476 85.6515 380.476H85.6613Z" fill="#F5EBDD"/>
<path d="M65.8428 408.913H106.606" stroke="#FFB7D5" stroke-width="4" stroke-linecap="round" stroke-linejoin="round"/>
<path d="M85.6613 474.015H86.7862C91.0359 474.015 95.1116 475.703 98.1166 478.708C101.122 481.713 102.81 485.789 102.81 490.038V523.22H69.6279V490.038C69.6279 487.933 70.0427 485.849 70.8486 483.904C71.6544 481.96 72.8356 480.193 74.3246 478.705C75.8136 477.217 77.5811 476.036 79.5263 475.232C81.4715 474.427 83.5562 474.014 85.6613 474.015Z" fill="#30242A"/>
<path d="M159.929 145.523H34.793V161.165H159.929V145.523Z" fill="#CA7358"/>
<path d="M6.11101 384.897H-27.0708V427.558H6.11101V384.897Z" fill="#30242A"/>
<path d="M-30.8564 403.856H9.90676" stroke="#FFB7D5" stroke-width="4" stroke-linecap="round" stroke-linejoin="round"/>
<path d="M6.11101 461.943H-27.0708V504.604H6.11101V461.943Z" fill="#F5EBDD"/>
<path d="M-30.8564 480.902H9.90676" stroke="#FFB7D5" stroke-width="4" stroke-linecap="round" stroke-linejoin="round"/>
<path d="M182.585 495.82H-235.495V524.257H182.585V495.82Z" fill="#F5EBDD"/>
<path d="M-19.8509 0H-33.0278C-136.975 0 -221.241 84.2654 -221.241 188.213V524.257H168.401V188.213C168.372 84.2654 84.0966 0 -19.8509 0ZM-40.6678 495.82H-192.833V258.812H-40.6678V495.82ZM-40.6678 230.375H-192.833V189.181C-192.831 148.036 -177.052 108.457 -148.744 78.5966C-120.436 48.7363 -81.7549 30.8682 -40.6678 28.6721V230.375ZM139.925 495.82H-12.2304V258.812H139.925V495.82ZM139.925 230.375H-12.2304V28.6721C28.8558 30.8682 67.5355 48.7367 95.8419 78.5973C124.148 108.458 139.926 148.036 139.925 189.181V230.375Z" fill="#F5EBDD"/>
<path d="M303.535 551.726C303.541 552.773 303.327 553.809 302.909 554.768C299.974 561.45 287.433 562.438 274.96 556.969C264.513 552.401 257.411 544.751 257.107 538.461V621.885H303.564V551.726H303.535Z" fill="#FFBE21"/>
<path d="M285.672 532.797C273.199 527.329 260.677 528.317 257.723 534.998C257.248 536.095 257.037 537.288 257.107 538.481C257.41 544.771 264.512 552.42 274.96 556.989C287.432 562.457 299.954 561.469 302.908 554.788C303.327 553.829 303.54 552.792 303.534 551.746C303.563 545.377 296.373 537.473 285.672 532.797Z" fill="#A15842"/>
<path d="M339.152 579.244C338.849 585.534 331.747 593.184 321.299 597.762C308.817 603.22 296.305 602.242 293.341 595.551C292.927 594.594 292.714 593.562 292.715 592.519V621.866H339.162V579.244H339.152Z" fill="#FFBE21"/>
<path d="M338.536 575.761C335.601 569.08 323.06 568.092 310.578 573.56C299.885 578.246 292.695 586.14 292.715 592.519C292.714 593.562 292.927 594.594 293.341 595.551C296.276 602.242 308.817 603.22 321.299 597.762C331.747 593.184 338.849 585.534 339.152 579.244C339.222 578.051 339.011 576.858 338.536 575.761Z" fill="#A15842"/>
<path d="M294.075 621.905V593.467" stroke="#A15842" stroke-width="4" stroke-miterlimit="10" stroke-linecap="round"/>
<path d="M280.331 526.625V542.746" stroke="#30242A" stroke-width="4" stroke-linecap="round" stroke-linejoin="round"/>
<path d="M315.939 567.397V584.458" stroke="#30242A" stroke-width="4" stroke-linecap="round" stroke-linejoin="round"/>
<path d="M81.4256 899C80.2398 899.001 79.0706 898.721 78.0143 898.182C76.958 897.643 76.0448 896.861 75.3496 895.9C74.6544 894.939 74.197 893.827 74.0153 892.656C73.8335 891.484 73.9325 890.285 74.304 889.159L97.7817 817.611C98.2775 816.111 99.2334 814.806 100.514 813.88C101.794 812.955 103.333 812.456 104.913 812.456H121.367C122.674 812.455 123.959 812.796 125.094 813.445C126.228 814.094 127.173 815.029 127.835 816.156C128.496 817.284 128.852 818.565 128.865 819.872C128.878 821.179 128.55 822.467 127.912 823.608L87.9407 895.156C87.2941 896.318 86.3498 897.286 85.2047 897.962C84.0597 898.638 82.7552 898.996 81.4256 899Z" fill="#30242A"/>
<path d="M395.948 899C397.134 899.001 398.303 898.721 399.36 898.182C400.416 897.643 401.329 896.861 402.024 895.9C402.72 894.939 403.177 893.827 403.359 892.656C403.541 891.484 403.442 890.285 403.07 889.159L379.592 817.611C379.097 816.113 378.143 814.808 376.864 813.883C375.586 812.958 374.049 812.458 372.471 812.456H356.007C354.701 812.458 353.418 812.801 352.285 813.451C351.152 814.1 350.209 815.035 349.548 816.161C348.887 817.288 348.531 818.567 348.516 819.873C348.501 821.179 348.827 822.466 349.463 823.608L389.433 895.156C390.081 896.316 391.026 897.284 392.171 897.959C393.316 898.635 394.619 898.994 395.948 899Z" fill="#30242A"/>
<path d="M432.251 621.905H46.4048V842.791H432.251V621.905Z" fill="#A15842"/>
<path d="M403.805 650.342H74.8428V814.354H403.805V650.342Z" fill="#FFB7D5"/>
<path d="M238.971 647.505V817.2" stroke="#A15842" stroke-width="4" stroke-miterlimit="10"/>
<path d="M277.739 742.287C283.228 742.287 287.678 737.837 287.678 732.348C287.678 726.859 283.228 722.409 277.739 722.409C272.25 722.409 267.8 726.859 267.8 732.348C267.8 737.837 272.25 742.287 277.739 742.287Z" fill="#30242A"/>
<path d="M200.908 742.287C206.397 742.287 210.847 737.837 210.847 732.348C210.847 726.859 206.397 722.409 200.908 722.409C195.419 722.409 190.969 726.859 190.969 732.348C190.969 737.837 195.419 742.287 200.908 742.287Z" fill="#30242A"/>
<path d="M-16.046 852.28L-93.5225 887.418C-94.8344 888.335 -95.7536 889.712 -96.0978 891.275C-96.442 892.838 -96.186 894.473 -95.3806 895.856C-94.5751 897.239 -93.2791 898.269 -91.7498 898.741C-90.2204 899.213 -88.5695 899.092 -87.1248 898.404L30.4398 843.623C25.8324 830.905 13.9859 826.014 -14.0798 821.123L-15.283 820.898C-17.6086 831.205 -17.8679 841.872 -16.046 852.28Z" fill="#3EC1F3"/>
<path d="M194.902 423.968C194.902 423.968 187.213 441.263 167.041 441.263C146.87 441.263 139.142 423.968 139.142 423.968C139.142 423.968 82.4042 553.683 138.164 621.905H195.811C251.542 553.683 194.902 423.968 194.902 423.968Z" fill="#3EC1F3"/>
<path d="M166.992 441.263C187.163 441.263 194.852 423.968 194.852 423.968H139.093C139.093 423.968 146.811 441.263 166.992 441.263Z" fill="#30242A"/>
<path d="M219.103 539.449C187.74 540.007 150.626 551.335 122.062 591.296" stroke="#F5EBDD" stroke-width="4" stroke-linecap="round" stroke-linejoin="round"/>
<path d="M117.043 507.705C138.095 502.569 177.958 497.678 216.598 506.874" stroke="#F5EBDD" stroke-width="4" stroke-linecap="round" stroke-linejoin="round"/>
<path d="M216.422 572.748C202.394 572.915 176.461 588.811 179.317 620.848" stroke="#F5EBDD" stroke-width="4" stroke-linecap="round" stroke-linejoin="round"/>
<path d="M163.461 435.511C162.874 421.571 159.167 366.174 137.156 333.677" stroke="#30242A" stroke-width="4" stroke-miterlimit="10" stroke-linecap="round"/>
<path d="M158.873 392.914C161.687 388.144 146.771 374.132 125.557 361.616C104.343 349.1 84.8651 342.82 82.0511 347.59C79.2372 352.359 94.1532 366.372 115.367 378.888C136.581 391.404 156.059 397.683 158.873 392.914Z" fill="#30242A"/>
<path d="M150.635 254.666C154.765 252.311 152.643 240.806 145.894 228.97C139.145 217.133 130.326 209.446 126.196 211.801C122.065 214.156 124.188 225.661 130.937 237.497C137.686 249.334 146.505 257.021 150.635 254.666Z" fill="#30242A"/>
<path d="M77.9825 304.848C80.2031 299.908 90.6507 299.546 103.348 303.332C95.5223 289.333 93.1257 276.313 98.3006 272.958C103.475 269.602 114.412 277.027 124.009 289.911C125.701 276.773 130.279 267.411 135.748 267.352C142.654 267.352 148.308 282.584 148.377 301.424C148.418 306.812 147.94 312.191 146.948 317.487C143.937 316.108 140.629 315.503 137.324 315.728C134.019 315.952 130.823 316.999 128.026 318.772C125.229 320.546 122.919 322.991 121.307 325.884C119.695 328.778 118.831 332.028 118.795 335.34C113.73 334.098 108.791 332.389 104.043 330.234C86.7965 322.515 75.1554 311.158 77.9825 304.848Z" fill="#4756DF"/>
<path d="M127.804 318.905C130.61 317.081 133.833 315.996 137.171 315.751C140.51 315.507 143.856 316.111 146.899 317.507C145.216 326.262 142.174 332.757 138.515 334.87C135.033 337.404 127.657 337.502 118.745 335.359C118.782 332.083 119.628 328.866 121.208 325.995C122.789 323.124 125.054 320.689 127.804 318.905Z" fill="#30242A"/>
<path d="M170.797 434.67C173.497 419.273 187.555 343.782 210.054 301.072" stroke="#30242A" stroke-width="4" stroke-miterlimit="10" stroke-linecap="round"/>
<path d="M285.997 405.692C287.615 400.696 266.003 389.22 237.724 380.059C209.446 370.898 185.209 367.521 183.591 372.517C181.973 377.513 203.585 388.989 231.864 398.15C260.142 407.311 284.378 410.688 285.997 405.692Z" fill="#30242A"/>
<path d="M205.818 234.895C211.218 234.405 216.657 243.337 219.582 256.259C227.916 242.564 238.11 234.092 243.578 236.959C249.046 239.825 247.931 252.992 241.406 267.675C253.693 262.716 264.131 262.09 266.84 266.805C270.245 272.811 259.729 285.225 243.363 294.518C238.695 297.194 233.781 299.415 228.689 301.151C228.41 297.854 227.313 294.678 225.497 291.913C223.682 289.147 221.204 286.877 218.29 285.311C215.376 283.744 212.117 282.929 208.808 282.939C205.5 282.95 202.246 283.786 199.342 285.372C197.945 280.345 197.011 275.201 196.554 270.003C194.744 251.241 198.941 235.521 205.818 234.895Z" fill="#4756DF"/>
<path d="M218.017 285.195C220.984 286.747 223.51 289.024 225.362 291.813C227.214 294.602 228.332 297.814 228.611 301.15C220.149 303.978 212.96 304.516 209.36 302.363C205.447 300.573 201.739 294.185 199.235 285.371C202.108 283.794 205.326 282.953 208.604 282.922C211.881 282.892 215.115 283.673 218.017 285.195Z" fill="#30242A"/>
<path d="M264.141 324.452V324.53C259.54 326.427 255.817 329.98 253.707 334.486C251.596 338.993 251.251 344.127 252.739 348.876C254.228 353.625 257.441 357.644 261.747 360.139C266.052 362.635 271.137 363.427 275.997 362.359V362.437C250.221 370.508 226.665 368.551 223.378 358.055C220.091 347.558 238.365 332.523 264.141 324.452Z" fill="#4756DF"/>
<path d="M258.008 357.35C260.268 356.445 262.103 354.718 263.145 352.516C264.186 350.315 264.357 347.801 263.624 345.479C262.89 343.157 261.306 341.197 259.188 339.994C257.071 338.79 254.577 338.431 252.207 338.989C252.857 335.782 254.287 332.784 256.373 330.262C258.458 327.74 261.133 325.772 264.161 324.53L276.017 362.359C272.834 363.062 269.528 362.973 266.388 362.1C263.248 361.227 260.37 359.596 258.008 357.35Z" fill="#FFB7D5"/>
<path d="M263.583 345.514C264.309 347.826 264.139 350.328 263.106 352.52C262.073 354.713 260.253 356.437 258.007 357.35C255.566 355.031 253.752 352.129 252.738 348.918C251.723 345.707 251.54 342.29 252.206 338.989C254.576 338.446 257.063 338.817 259.171 340.026C261.28 341.235 262.855 343.195 263.583 345.514Z" fill="#30242A"/>
</svg>
