<svg width="909" height="870" viewBox="0 0 909 870" fill="none" xmlns="http://www.w3.org/2000/svg">
<path d="M831.43 155.182H585.76C581.204 155.187 576.837 157 573.618 160.224C570.398 163.447 568.59 167.816 568.59 172.372V323.252H848.59V172.372C848.587 167.819 846.779 163.452 843.563 160.23C840.346 157.008 835.983 155.192 831.43 155.182Z" fill="#F5EBDD"/>
<path d="M702.59 130.252C704.156 130.254 705.658 130.878 706.766 131.986C707.874 133.093 708.497 134.595 708.5 136.162V231.252C708.497 232.818 707.874 234.32 706.766 235.428C705.658 236.536 704.156 237.159 702.59 237.162H606.49C604.925 237.156 603.426 236.532 602.32 235.424C601.215 234.317 600.592 232.817 600.59 231.252V136.152C600.595 134.589 601.218 133.091 602.324 131.986C603.429 130.88 604.927 130.257 606.49 130.252H702.59ZM702.59 126.252H606.49C605.188 126.25 603.898 126.506 602.694 127.003C601.491 127.501 600.397 128.23 599.476 129.151C598.555 130.071 597.824 131.164 597.325 132.367C596.826 133.57 596.57 134.859 596.57 136.162V231.252C596.572 233.881 597.619 236.402 599.479 238.26C601.339 240.118 603.861 241.162 606.49 241.162H702.59C705.218 241.162 707.739 240.118 709.597 238.259C711.456 236.401 712.5 233.88 712.5 231.252V136.152C712.497 133.525 711.452 131.007 709.594 129.151C707.736 127.294 705.216 126.252 702.59 126.252Z" fill="#FFB7D5"/>
<path d="M854.68 240.792C856.247 240.794 857.748 241.418 858.856 242.526C859.964 243.633 860.588 245.135 860.59 246.702V341.802C860.588 343.368 859.964 344.87 858.856 345.978C857.748 347.086 856.247 347.709 854.68 347.712H759.07C757.504 347.709 756.002 347.086 754.894 345.978C753.786 344.87 753.163 343.368 753.16 341.802V246.702C753.163 245.135 753.786 243.633 754.894 242.526C756.002 241.418 757.504 240.794 759.07 240.792H854.68ZM854.68 236.792H759.07C756.442 236.792 753.921 237.836 752.063 239.694C750.204 241.553 749.16 244.073 749.16 246.702V341.802C749.16 344.43 750.204 346.951 752.063 348.809C753.921 350.668 756.442 351.712 759.07 351.712H854.68C857.308 351.712 859.829 350.668 861.688 348.809C863.546 346.951 864.59 344.43 864.59 341.802V246.702C864.59 244.073 863.546 241.553 861.688 239.694C859.829 237.836 857.308 236.792 854.68 236.792Z" fill="#FFB7D5"/>
<path d="M609.84 264.442C611.406 264.444 612.908 265.068 614.016 266.176C615.124 267.283 615.747 268.785 615.75 270.352V331.352C615.747 332.918 615.124 334.42 614.016 335.528C612.908 336.636 611.406 337.259 609.84 337.262H555.5C553.933 337.259 552.432 336.636 551.324 335.528C550.216 334.42 549.592 332.918 549.59 331.352V270.352C549.592 268.785 550.216 267.283 551.324 266.176C552.432 265.068 553.933 264.444 555.5 264.442H609.84ZM609.84 260.442H555.5C554.198 260.442 552.91 260.698 551.707 261.196C550.505 261.694 549.413 262.424 548.492 263.344C547.572 264.264 546.842 265.357 546.344 266.559C545.846 267.762 545.59 269.05 545.59 270.352V331.352C545.59 333.98 546.634 336.501 548.492 338.359C550.351 340.218 552.872 341.262 555.5 341.262H609.84C612.468 341.262 614.989 340.218 616.847 338.359C618.706 336.501 619.75 333.98 619.75 331.352V270.352C619.75 269.05 619.494 267.762 618.995 266.559C618.497 265.357 617.768 264.264 616.847 263.344C615.927 262.424 614.835 261.694 613.632 261.196C612.43 260.698 611.141 260.442 609.84 260.442Z" fill="#FFB7D5"/>
<path d="M697.98 139.732H611.06V200.572H697.98V139.732Z" fill="#FFB7D5"/>
<path d="M750.78 180.052H666.43C653.987 180.052 643.9 190.139 643.9 202.582V275.342C643.9 287.785 653.987 297.872 666.43 297.872H750.78C763.223 297.872 773.31 287.785 773.31 275.342V202.582C773.31 190.139 763.223 180.052 750.78 180.052Z" fill="#3EC1F3"/>
<path d="M627.41 213.512C626.538 212.642 625.357 212.153 624.125 212.153C622.893 212.153 621.712 212.642 620.84 213.512L619.84 214.512L618.84 213.512C617.957 212.701 616.795 212.264 615.596 212.289C614.398 212.315 613.256 212.803 612.408 213.65C611.561 214.498 611.073 215.64 611.047 216.838C611.022 218.036 611.46 219.198 612.27 220.082L613.27 221.082L619.84 227.652L626.4 221.082L627.4 220.082C628.271 219.211 628.762 218.031 628.764 216.799C628.766 215.567 628.279 214.385 627.41 213.512Z" fill="#FFB7D5"/>
<path d="M716.07 214.332H684.71C679.237 214.332 674.8 218.769 674.8 224.242V253.672C674.8 259.145 679.237 263.582 684.71 263.582H716.07C721.543 263.582 725.98 259.145 725.98 253.672V224.242C725.98 218.769 721.543 214.332 716.07 214.332Z" fill="#4756DF"/>
<path d="M718.52 243.012L736.65 257.462C737.346 258.017 738.185 258.365 739.07 258.465C739.955 258.564 740.851 258.412 741.653 258.026C742.455 257.639 743.132 257.034 743.606 256.279C744.08 255.525 744.331 254.652 744.33 253.762V224.852C744.331 223.961 744.08 223.088 743.606 222.334C743.132 221.58 742.455 220.974 741.653 220.588C740.851 220.201 739.955 220.049 739.07 220.149C738.185 220.249 737.346 220.596 736.65 221.152L718.52 235.612C717.964 236.055 717.515 236.618 717.206 237.258C716.897 237.899 716.737 238.601 716.737 239.312C716.737 240.023 716.897 240.725 717.206 241.365C717.515 242.006 717.964 242.569 718.52 243.012Z" fill="#4756DF"/>
<path d="M845.17 126.252H572.03C563.434 126.249 555.189 129.659 549.106 135.733C543.023 141.806 539.6 150.046 539.59 158.642V348.732C539.59 357.333 543.007 365.581 549.088 371.663C555.17 377.745 563.419 381.162 572.02 381.162H845.16C853.761 381.162 862.009 377.745 868.091 371.663C874.173 365.581 877.59 357.333 877.59 348.732V158.642C877.579 150.049 874.159 141.812 868.081 135.74C862.002 129.667 853.762 126.254 845.17 126.252ZM848.59 323.252H568.59V172.372C568.59 170.114 569.034 167.879 569.898 165.793C570.762 163.708 572.028 161.813 573.625 160.217C575.221 158.62 577.116 157.354 579.202 156.49C581.287 155.626 583.522 155.182 585.78 155.182H831.45C836.01 155.182 840.383 156.992 843.609 160.216C846.834 163.439 848.647 167.812 848.65 172.372L848.59 323.252Z" fill="#4756DF"/>
<path d="M682.52 339.632H734.67C739.794 339.632 744.708 341.667 748.331 345.29C751.955 348.914 753.99 353.828 753.99 358.952V417.862C753.988 422.984 751.951 427.896 748.328 431.517C744.705 435.138 739.792 437.172 734.67 437.172H636.17C634.377 437.172 632.658 436.46 631.39 435.192C630.122 433.924 629.41 432.205 629.41 430.412C629.41 428.619 630.122 426.899 631.39 425.632C632.658 424.364 634.377 423.652 636.17 423.652H663.17V358.952C663.17 356.412 663.671 353.897 664.644 351.551C665.616 349.205 667.042 347.074 668.839 345.28C670.637 343.485 672.77 342.063 675.117 341.094C677.465 340.125 679.98 339.628 682.52 339.632Z" fill="#4756DF"/>
<path d="M708.6 364.262C715.266 364.262 720.67 358.858 720.67 352.192C720.67 345.526 715.266 340.122 708.6 340.122C701.934 340.122 696.53 345.526 696.53 352.192C696.53 358.858 701.934 364.262 708.6 364.262Z" fill="#3EC1F3"/>
<path d="M708.6 144.552C710.732 144.552 712.46 142.824 712.46 140.692C712.46 138.56 710.732 136.832 708.6 136.832C706.468 136.832 704.74 138.56 704.74 140.692C704.74 142.824 706.468 144.552 708.6 144.552Z" fill="#30242A"/>
<path d="M753.99 383.092H662.99" stroke="#30242A" stroke-width="4" stroke-miterlimit="10"/>
<path d="M429.22 437.172H901.05C906.354 437.172 911.442 439.279 915.192 443.03C918.943 446.78 921.05 451.867 921.05 457.172V869.812H409.22V457.172C409.22 451.867 411.327 446.78 415.078 443.03C418.829 439.279 423.916 437.172 429.22 437.172Z" fill="#FFB7D5"/>
<path d="M735.02 484.632V554.852H456.68V484.632H735.02ZM739.02 480.632H452.68V558.852H739.02V480.632Z" fill="#A15842"/>
<path d="M595.85 531.812C602.516 531.812 607.92 526.408 607.92 519.742C607.92 513.076 602.516 507.672 595.85 507.672C589.184 507.672 583.78 513.076 583.78 519.742C583.78 526.408 589.184 531.812 595.85 531.812Z" fill="#A15842"/>
<path d="M735.02 606.312V822.362H456.68V606.312H735.02ZM739.02 602.312H452.68V826.362H739.02V602.312Z" fill="#A15842"/>
<path d="M554.32 726.402C560.986 726.402 566.39 720.998 566.39 714.332C566.39 707.666 560.986 702.262 554.32 702.262C547.654 702.262 542.25 707.666 542.25 714.332C542.25 720.998 547.654 726.402 554.32 726.402Z" fill="#A15842"/>
<path d="M637.38 726.402C644.046 726.402 649.45 720.998 649.45 714.332C649.45 707.666 644.046 702.262 637.38 702.262C630.714 702.262 625.31 707.666 625.31 714.332C625.31 720.998 630.714 726.402 637.38 726.402Z" fill="#A15842"/>
<path d="M596.57 604.242V824.432" stroke="#A15842" stroke-width="4" stroke-miterlimit="10"/>
<path d="M877.6 480.632H782.48V826.362H877.6V480.632Z" fill="#A15842"/>
<path d="M877.6 653.492H781.99" stroke="#FFB7D5" stroke-width="4" stroke-miterlimit="10"/>
<path d="M54.2798 437.172H389.95C395.254 437.172 400.341 439.279 404.092 443.03C407.843 446.78 409.95 451.867 409.95 457.172V869.812H34.2798V457.172C34.2798 451.867 36.3869 446.78 40.1376 443.03C43.8884 439.279 48.9755 437.172 54.2798 437.172Z" fill="#3EC1F3"/>
<path d="M352.49 558.852H91.7402V826.362H352.49V558.852Z" fill="#30242A"/>
<path d="M352.49 826.362H91.74L0 639.012H260.74L352.49 826.362Z" fill="#4756DF"/>
<path d="M182.52 437.172H91.7402L101.4 416.892H172.86L182.52 437.172Z" fill="#30242A"/>
<path d="M352.49 437.172H261.71L271.37 416.892H342.83L352.49 437.172Z" fill="#30242A"/>
<path d="M109.61 516.362C119.48 516.362 127.48 508.361 127.48 498.492C127.48 488.622 119.48 480.622 109.61 480.622C99.7409 480.622 91.7402 488.622 91.7402 498.492C91.7402 508.361 99.7409 516.362 109.61 516.362Z" fill="#F5EBDD"/>
<path d="M89.8101 498.492H104.3" stroke="#30242A" stroke-width="4" stroke-miterlimit="10" stroke-linecap="round"/>
<path d="M184.61 516.362C194.48 516.362 202.48 508.361 202.48 498.492C202.48 488.622 194.48 480.622 184.61 480.622C174.741 480.622 166.74 488.622 166.74 498.492C166.74 508.361 174.741 516.362 184.61 516.362Z" fill="#F5EBDD"/>
<path d="M184.61 478.702V493.182" stroke="#30242A" stroke-width="4" stroke-miterlimit="10" stroke-linecap="round"/>
<path d="M259.62 516.362C269.489 516.362 277.49 508.361 277.49 498.492C277.49 488.622 269.489 480.622 259.62 480.622C249.751 480.622 241.75 488.622 241.75 498.492C241.75 508.361 249.751 516.362 259.62 516.362Z" fill="#F5EBDD"/>
<path d="M259.62 478.702V493.182" stroke="#30242A" stroke-width="4" stroke-miterlimit="10" stroke-linecap="round"/>
<path d="M334.62 516.362C344.489 516.362 352.49 508.361 352.49 498.492C352.49 488.622 344.489 480.622 334.62 480.622C324.751 480.622 316.75 488.622 316.75 498.492C316.75 508.361 324.751 516.362 334.62 516.362Z" fill="#F5EBDD"/>
<path d="M334.62 478.702V493.182" stroke="#30242A" stroke-width="4" stroke-miterlimit="10" stroke-linecap="round"/>
<path d="M222.35 674.742H86.1902C82.7218 674.742 79.9102 677.551 79.9102 681.017C79.9102 684.482 82.7218 687.292 86.1902 687.292H222.35C225.819 687.292 228.63 684.482 228.63 681.017C228.63 677.551 225.819 674.742 222.35 674.742Z" fill="#30242A"/>
<path d="M412.12 51.8518C394.31 63.3018 406.33 87.5818 422.74 88.5418C429.036 103.238 429.726 119.731 424.68 134.902H449.68L449.77 124.372C472.63 130.062 481.05 121.082 485.48 112.972C490.48 103.772 489 95.1617 487.29 83.9717C487.29 83.9717 495.46 80.7217 494.84 75.7917C494.34 71.7917 485.63 70.3218 485.63 70.3218C485.5 68.5618 485.41 66.7418 485.36 64.8518C485.271 59.8352 484.904 54.8275 484.26 49.8518C465.06 60.0817 441.15 65.3917 441.15 65.3917C441.15 65.3917 425.64 43.1518 412.12 51.8518Z" fill="#A15842"/>
<path d="M709.72 415.782C720.19 419.782 727.91 413.032 725.98 409.162C724.72 406.642 688.49 379.462 651.1 351.842L608.27 405.252C618.1 409.022 624.58 411.152 624.58 411.152C624.58 411.152 635.2 427.562 650.66 437.222C650.66 437.222 667.07 476.812 675.76 475.852C681.6 475.202 673.83 452.672 671.9 443.012C671.9 443.012 691.22 475.852 703.77 475.852C706.67 475.852 709.34 473.852 709.56 469.092C709.56 469.092 715.93 470.842 718.26 466.192C719.26 464.262 719.26 461.362 719.26 459.432C719.26 459.432 724.26 460.822 726.99 457.502C731.59 451.942 721.51 433.562 709.72 415.782Z" fill="#A15842"/>
<path d="M306.86 245.962C306.353 245.522 305.783 245.042 305.15 244.522C305.71 245.002 306.27 245.482 306.86 245.962Z" fill="#FF7235"/>
<path d="M568.59 291.352C568.59 291.352 524.03 188.802 505.82 164.842C487.45 140.692 449.59 142.012 449.59 142.012L449.65 134.902H424.65C424.65 134.902 451.65 188.982 400.5 212.162C381.19 274.932 321.31 258.512 306.83 245.962C301.03 256.582 272.06 303.902 287.51 339.632C301.03 367.632 349.32 361.842 349.32 361.842L358.98 341.562H481.65H442.54L473.93 273.042L484.59 299.072C484.59 299.072 498.14 333.802 527.08 360.882C547.75 380.222 586.38 396.792 608.31 405.202L651.14 351.842C610.51 321.852 568.59 291.352 568.59 291.352Z" fill="#FF7235"/>
<path d="M352.82 297.732L332.93 306.802" stroke="#30242A" stroke-width="4" stroke-linecap="round" stroke-linejoin="round"/>
<path d="M359.97 345.432L347 258.082" stroke="#30242A" stroke-width="4" stroke-linecap="round" stroke-linejoin="round"/>
<path d="M442.54 341.522L481.65 341.562L484.55 299.072L473.93 273.002L442.54 341.522Z" fill="#FFBE21"/>
<path d="M463.42 8.71173C453.69 3.27173 438.42 -2.13828 421.17 3.23172C389.54 13.0817 383.47 40.4717 379.29 58.6117C376.39 71.1617 373.49 85.6117 373.49 85.6117C373.49 85.6117 319.41 89.4717 325.21 144.522C296.46 151.092 266.33 189.782 289.44 226.752C293.726 233.441 299.026 239.422 305.15 244.482C305.783 245.002 306.353 245.482 306.86 245.922C321.34 258.472 381.22 274.922 400.53 212.122C451.72 188.942 424.68 134.862 424.68 134.862C429.726 119.691 429.036 103.198 422.74 88.5017C406.33 87.5017 394.31 63.2617 412.12 51.8117C425.64 43.1117 441.12 65.4217 441.12 65.4217C441.12 65.4217 465.03 60.1117 484.23 49.8817C484.23 49.8817 484.23 49.8017 484.23 49.7717C484.23 49.7417 499.61 42.3517 503.84 28.6317C511.59 3.56173 479.72 -9.95827 463.42 8.71173Z" fill="#FFBE21"/>
<path d="M483.06 300.562C477.58 287.692 468.2 264.842 462.34 245.962" stroke="#30242A" stroke-width="4" stroke-linecap="round" stroke-linejoin="round"/>
<path d="M670.51 444.102L667.07 436.202" stroke="#30242A" stroke-width="4" stroke-linecap="round" stroke-linejoin="round"/>
<path d="M709.59 468.252C703.31 460.062 690.27 441.712 679.59 427.512" stroke="#30242A" stroke-width="4" stroke-linecap="round" stroke-linejoin="round"/>
<path d="M720.59 458.252C712.91 446.962 701.14 429.252 693.15 417.862" stroke="#30242A" stroke-width="4" stroke-linecap="round" stroke-linejoin="round"/>
<path d="M712 415.342C708.39 409.802 704.34 403.772 700 397.662" stroke="#30242A" stroke-width="4" stroke-linecap="round" stroke-linejoin="round"/>
<path d="M466.06 7.98169C468.28 9.55169 470.76 11.3817 472.96 13.2217" stroke="#CA7358" stroke-width="4" stroke-linecap="round" stroke-linejoin="round"/>
<path d="M371.05 86.7317L368.66 98.2017" stroke="#CA7358" stroke-width="4" stroke-linecap="round" stroke-linejoin="round"/>
<path d="M323.24 146.332C324.798 154.248 327.755 161.823 331.97 168.702" stroke="#CA7358" stroke-width="4" stroke-linecap="round" stroke-linejoin="round"/>
<path d="M449.21 126.252C445.372 124.91 441.669 123.209 438.15 121.172" stroke="#30242A" stroke-width="4" stroke-linecap="round" stroke-linejoin="round"/>
<path d="M520.28 539.382C518.791 542.331 516.514 544.809 513.7 546.54C510.887 548.272 507.648 549.188 504.345 549.188C501.042 549.188 497.803 548.272 494.99 546.54C492.176 544.809 489.899 542.331 488.41 539.382C486.921 542.331 484.644 544.809 481.83 546.54C479.017 548.272 475.778 549.188 472.475 549.188C469.172 549.188 465.933 548.272 463.12 546.54C460.306 544.809 458.029 542.331 456.54 539.382C455.053 542.331 452.776 544.81 449.964 546.542C447.151 548.273 443.913 549.19 440.61 549.19C437.307 549.19 434.069 548.273 431.256 546.542C428.443 544.81 426.167 542.331 424.68 539.382C424.004 540.702 423.167 541.935 422.19 543.052C448.82 614.862 432.4 649.632 424.68 719.162C423.118 733.914 422.67 748.762 423.34 763.582H515.73C519.09 734.302 526 694.752 529.95 645.712C520.984 645.111 512.6 641.064 506.553 634.417C500.506 627.77 497.268 619.041 497.516 610.059C497.764 601.077 501.48 592.539 507.885 586.237C514.289 579.934 522.885 576.356 531.87 576.252C532.2 576.252 532.53 576.252 532.87 576.252C532.87 566.892 532.58 557.702 532.11 548.692C529.58 548.093 527.211 546.95 525.167 545.342C523.124 543.734 521.456 541.7 520.28 539.382Z" fill="#F5EBDD"/>
<path d="M392.81 539.382C391.321 542.331 389.044 544.809 386.23 546.54C383.417 548.272 380.178 549.188 376.875 549.188C373.571 549.188 370.333 548.272 367.519 546.54C364.706 544.809 362.428 542.331 360.94 539.382C359.451 542.331 357.174 544.809 354.36 546.54C351.547 548.272 348.308 549.188 345.005 549.188C341.701 549.188 338.463 548.272 335.649 546.54C332.836 544.809 330.558 542.331 329.07 539.382C327.863 541.776 326.131 543.868 324.004 545.501C321.877 547.134 319.409 548.267 316.783 548.815C314.158 549.362 311.443 549.311 308.84 548.665C306.237 548.019 303.814 546.794 301.75 545.082C292.75 571.602 282.38 580.152 236.36 650.592C224.285 669.215 213.884 688.872 205.28 709.332L288.28 751.522C305.59 722.682 331.92 687.622 353.88 652.522C346.179 648.022 340.503 640.734 338.025 632.166C335.548 623.598 336.458 614.406 340.569 606.49C344.679 598.575 351.675 592.543 360.109 589.641C368.543 586.739 377.769 587.191 385.88 590.902C393.32 573.212 398.67 557.722 402.02 547.902C398.024 546.263 394.754 543.238 392.81 539.382Z" fill="#F5EBDD"/>
<path d="M410.92 549.052C411.49 548.982 412.06 548.892 412.62 548.772H412.74C413.28 548.645 413.81 548.495 414.33 548.322L414.59 548.252C415.14 548.052 415.69 547.842 416.22 547.592H416.29C416.82 547.342 417.29 547.072 417.84 546.772L417.93 546.712C418.45 546.405 418.954 546.071 419.44 545.712C420.43 544.963 421.339 544.111 422.15 543.172C423.127 542.055 423.964 540.822 424.64 539.502C426.127 542.451 428.404 544.93 431.216 546.662C434.029 548.393 437.267 549.31 440.57 549.31C443.873 549.31 447.111 548.393 449.924 546.662C452.736 544.93 455.013 542.451 456.5 539.502C457.989 542.451 460.266 544.929 463.08 546.66C465.893 548.392 469.132 549.308 472.435 549.308C475.738 549.308 478.977 548.392 481.79 546.66C484.604 544.929 486.881 542.451 488.37 539.502C489.859 542.451 492.136 544.929 494.95 546.66C497.763 548.392 501.002 549.308 504.305 549.308C507.608 549.308 510.847 548.392 513.66 546.66C516.474 544.929 518.751 542.451 520.24 539.502C521.413 541.82 523.077 543.855 525.117 545.464C527.157 547.074 529.523 548.22 532.05 548.822C530.58 521.698 527.201 494.711 521.94 468.062C514.722 470.05 507.177 470.561 499.757 469.562C492.337 468.564 485.195 466.077 478.76 462.252C451.05 446.422 444.11 368.962 442.51 341.532H359.01C310.72 384.992 311.69 514.402 302.51 542.772C302.26 543.552 302 544.302 301.75 545.052C303.814 546.764 306.238 547.989 308.84 548.635C311.443 549.281 314.158 549.333 316.784 548.785C319.409 548.237 321.877 547.104 324.004 545.471C326.131 543.838 327.863 541.746 329.07 539.352C330.559 542.301 332.836 544.779 335.65 546.51C338.463 548.241 341.702 549.158 345.005 549.158C348.308 549.158 351.547 548.241 354.36 546.51C357.174 544.779 359.451 542.301 360.94 539.352C362.429 542.301 364.706 544.779 367.52 546.51C370.333 548.241 373.572 549.158 376.875 549.158C380.178 549.158 383.417 548.241 386.23 546.51C389.044 544.779 391.321 542.301 392.81 539.352C394.752 543.185 398.006 546.195 401.98 547.832C403.019 548.267 404.097 548.602 405.2 548.832H405.36C405.82 548.922 406.28 548.992 406.75 549.042H407.13C407.66 549.042 408.2 549.122 408.74 549.122C409.28 549.122 409.93 549.122 410.52 549.032L410.92 549.052Z" fill="#30242A"/>
<path d="M438.2 857.252H517.39C517.39 857.252 520.23 838.532 530.26 826.312C522.43 820.642 516.07 813.602 514.49 802.202C513.14 792.472 513.91 779.552 515.73 763.572H423.34C424.806 795.253 429.79 826.672 438.2 857.252Z" fill="#FF7235"/>
<path d="M178.42 800.252L175.93 799.012C175.681 798.888 175.424 798.781 175.16 798.692L249.28 836.572C249.28 836.572 260.28 821.492 274.45 815.332C272.571 811.444 271.132 807.359 270.16 803.152C267.44 791.152 275.34 773.032 288.27 751.492L205.27 709.302C184.04 759.452 178.42 800.252 178.42 800.252Z" fill="#FF7235"/>
<path d="M438.2 857.252H435.78C434.935 857.218 434.092 857.355 433.301 857.655C432.51 857.956 431.788 858.412 431.178 858.998C430.569 859.584 430.083 860.288 429.752 861.066C429.42 861.844 429.25 862.681 429.25 863.527C429.25 864.373 429.42 865.21 429.752 865.988C430.083 866.766 430.569 867.469 431.178 868.055C431.788 868.641 432.51 869.098 433.301 869.398C434.092 869.698 434.935 869.836 435.78 869.802H568.59C568.59 843.802 546.33 837.942 530.28 826.312C520.28 838.532 517.41 857.252 517.41 857.252H438.2Z" fill="#30242A"/>
<path d="M249.28 836.602L175.16 798.722C173.704 798.214 172.11 798.28 170.701 798.907C169.293 799.533 168.176 800.673 167.579 802.094C166.981 803.515 166.947 805.11 167.484 806.555C168.021 808 169.089 809.186 170.47 809.872L288.47 869.812C299.8 846.342 283.6 834.672 274.41 815.362C260.28 821.522 249.28 836.602 249.28 836.602Z" fill="#30242A"/>
<path d="M497.11 611.002C497.109 619.889 500.512 628.439 506.62 634.894C512.728 641.35 521.076 645.221 529.95 645.712C531.53 626.002 532.64 604.712 532.84 582.032C532.84 580.102 532.84 578.182 532.84 576.262C532.52 576.262 532.19 576.262 531.84 576.262C522.63 576.272 513.801 579.936 507.29 586.449C500.779 592.962 497.118 601.792 497.11 611.002Z" fill="#FFBE21"/>
<path d="M336.79 622.592C336.788 628.634 338.363 634.572 341.359 639.819C344.354 645.066 348.666 649.441 353.87 652.512C356.28 648.652 358.65 644.792 360.94 640.942C370.371 624.845 378.69 608.123 385.84 590.892C380.547 588.518 374.744 587.505 368.96 587.948C363.176 588.39 357.594 590.272 352.724 593.423C347.853 596.574 343.848 600.894 341.074 605.988C338.3 611.083 336.844 616.791 336.84 622.592H336.79Z" fill="#FFBE21"/>
<path d="M478.76 462.252C485.211 466.058 492.365 468.521 499.792 469.494C507.219 470.466 514.766 469.928 521.98 467.912C506.98 391.442 481.65 341.532 481.65 341.532H442.51C444.11 368.992 451.05 446.452 478.76 462.252Z" fill="#FFBE21"/>
<path d="M478.78 93.2518C477.1 94.1018 471.07 94.3518 469.06 89.5518" stroke="#30242A" stroke-width="4" stroke-linecap="round" stroke-linejoin="round"/>
<path d="M474.89 72.1318C476.492 72.1318 477.79 70.8334 477.79 69.2318C477.79 67.6302 476.492 66.3318 474.89 66.3318C473.289 66.3318 471.99 67.6302 471.99 69.2318C471.99 70.8334 473.289 72.1318 474.89 72.1318Z" fill="#30242A"/>
<path d="M419.85 68.2617L429.5 75.0217" stroke="#30242A" stroke-width="4" stroke-linecap="round" stroke-linejoin="round"/>
<path d="M358.04 341.562H481.65" stroke="#30242A" stroke-width="4" stroke-miterlimit="10" stroke-linecap="round"/>
<path d="M393.52 344.462C393.52 344.462 416.14 376.802 405.52 380.292C395.7 383.512 393.77 359.362 393.52 344.462Z" stroke="#A15842" stroke-width="4" stroke-linecap="round" stroke-linejoin="round"/>
<path d="M392.82 344.462C392.82 344.462 381.22 373.462 372.53 368.602C366.87 365.462 381.22 351.252 392.82 344.462Z" stroke="#A15842" stroke-width="4" stroke-linecap="round" stroke-linejoin="round"/>
<path d="M215.6 336.732H60.1198C56.6515 336.732 53.8398 339.541 53.8398 343.007C53.8398 346.472 56.6515 349.282 60.1198 349.282H215.6C219.068 349.282 221.88 346.472 221.88 343.007C221.88 339.541 219.068 336.732 215.6 336.732Z" fill="#30242A"/>
<path d="M137.86 340.602C92.4699 340.602 72.1899 307.762 72.1899 307.762V388.842C72.2032 396.264 75.1574 403.378 80.4055 408.626C85.6537 413.874 92.7679 416.829 100.19 416.842H175.42C182.851 416.842 189.978 413.893 195.237 408.644C200.496 403.394 203.457 396.272 203.47 388.842V307.762C203.47 307.762 183.24 340.602 137.86 340.602Z" fill="#FFB7D5"/>
<path d="M137.86 340.602C183.24 340.602 203.52 307.762 203.52 307.762H72.1899C72.1899 307.762 92.4699 340.602 137.86 340.602Z" fill="#A15842"/>
<path d="M139.3 307.762C145.966 307.762 151.37 302.358 151.37 295.692C151.37 289.026 145.966 283.622 139.3 283.622C132.634 283.622 127.23 289.026 127.23 295.692C127.23 302.358 132.634 307.762 139.3 307.762Z" fill="#30242A"/>
<path d="M140.27 232.442C150.139 232.442 158.14 224.441 158.14 214.572C158.14 204.702 150.139 196.702 140.27 196.702C130.401 196.702 122.4 204.702 122.4 214.572C122.4 224.441 130.401 232.442 140.27 232.442Z" fill="#F5EBDD"/>
<path d="M140.58 178.852C155.116 178.852 166.9 167.068 166.9 152.532C166.9 137.996 155.116 126.212 140.58 126.212C126.044 126.212 114.26 137.996 114.26 152.532C114.26 167.068 126.044 178.852 140.58 178.852Z" fill="#F5EBDD"/>
<path d="M1018.59 633.252C1018.59 633.252 1009.4 653.932 985.28 653.932C961.16 653.932 951.98 633.252 951.98 633.252C951.98 633.252 884.22 788.312 950.83 869.852H1019.75C1086.36 788.252 1018.59 633.252 1018.59 633.252Z" fill="#3EC1F3"/>
<path d="M966.606 590.23C968.71 585.309 953.767 574.202 933.231 565.421C912.695 556.641 894.342 553.512 892.238 558.433C890.134 563.353 905.076 574.46 925.612 583.241C946.148 592.022 964.502 595.151 966.606 590.23Z" fill="#30242A"/>
<path d="M955.9 478.362C953.697 474.69 950.643 471.602 946.994 469.36C943.346 467.118 939.212 465.788 934.94 465.481C930.669 465.174 926.387 465.9 922.456 467.598C918.525 469.296 915.06 471.915 912.355 475.235C909.65 478.555 907.784 482.477 906.915 486.67C906.046 490.863 906.2 495.203 907.362 499.324C908.525 503.446 910.663 507.226 913.596 510.347C916.528 513.467 920.169 515.836 924.21 517.252C925.569 508.541 929.22 500.349 934.788 493.515C940.357 486.681 947.644 481.451 955.9 478.362Z" fill="#FF7235"/>
<path d="M939.68 498.912C931.249 490.164 919.894 484.825 907.78 483.912" stroke="#F5EBDD" stroke-width="4" stroke-miterlimit="10" stroke-linecap="round"/>
</svg>
